<svg xmlns="http://www.w3.org/2000/svg" viewBox="0 0 635.14 80.62"><defs><style>.cls-1{fill:#c93;}</style></defs><title>bg-logo</title><g id="Layer_2" data-name="Layer 2"><path class="cls-1" d="M6882.69,7161.26c15.37,0,30.75-.17,46.12.05,14.15.2,23.92,10,21.5,22.65-1.08,5.63-5.5,10.62-8.7,16.45,4.93,2.87,9.94,8,10.52,16.18,1,13.71-7.61,23.18-22,23.44-15.82.29-31.65.08-47.48.09Zm20.9,61.68c7.42,0,14.63.61,21.63-.34,2.39-.32,5.71-4.47,5.9-7.06.15-2.1-3.53-6.17-5.88-6.46-7-.87-14.2-.31-21.65-.31Zm-.13-31.39c7.1,0,13.65.57,20-.29,2.44-.33,6.12-3.92,6.16-6.08,0-2.33-3.29-6.45-5.56-6.75-6.74-.91-13.69-.33-20.61-.33Z" transform="translate(-6882.69 -7161.2)"/><path d="M7214,7161.55c10.25,2.86,19.35,7.37,25.22,17.66l-15.62,8.34c-5.81-6.47-12.55-10.47-21.74-8-8.46,2.24-13.58,7.73-15.2,16-1.82,9.37.35,17.74,8.66,23.58,6.42,4.51,17.23,5,23.41.45,1.78-1.3,2.3-4.34,4-7.75h-18.28V7196h36c0,9.16.06,18.41-.08,27.65a5.41,5.41,0,0,1-1.7,3.33c-11.87,11.47-26,15.15-42,11.6-14.46-3.22-24.53-11.72-28.85-26.12-6.86-22.86,5.69-44.21,29-49.77a19.26,19.26,0,0,0,2.88-1.19Z" transform="translate(-6882.69 -7161.2)"/><path class="cls-1" d="M6963.36,7175.06c12.71,0,24.92-.33,37.09.1,10.21.36,18.39,7.06,20.64,15.8,2.81,10.88-.83,18.79-12.61,26.94l13.6,22.22c-6.88,0-12.65.23-18.37-.15-1.56-.1-3.51-1.73-4.4-3.2a89.74,89.74,0,0,1-6.54-12.61c-2-4.89-5.08-6.52-10.78-4.55v20.09h-18.63Zm18.88,15.65v12.7c4.68,0,8.93.05,13.17,0s7.62-2.08,6.72-6.38c-.51-2.43-3.74-5.44-6.25-6C6991.67,7190,6987.05,7190.71,6982.24,7190.71Z" transform="translate(-6882.69 -7161.2)"/><path d="M7294,7217.81l13.65,22.32c-6.9,0-12.67.23-18.41-.15-1.56-.1-3.49-1.76-4.38-3.23a91.42,91.42,0,0,1-6.54-12.62c-2-4.89-5.08-6.53-10.79-4.44v20h-18.61v-64.33c13.32,0,26.64-.72,39.83.25,9.24.68,15.78,6.69,18,16.05,2.47,10.37-1.16,18.44-10.3,24.36C7295.69,7216.53,7295,7217.09,7294,7217.81Zm-26.27-14.48c5.34,0,10.19.69,14.68-.29,2.21-.48,4.92-3.9,5.21-6.26.21-1.74-2.89-5.26-4.94-5.63-4.73-.85-9.72-.27-14.95-.27Z" transform="translate(-6882.69 -7161.2)"/><path d="M7385,7208.1c-.34,20-15.39,33.8-36.49,33.39-20.4-.39-35-15.1-34.61-34.75.43-19.41,15.77-33.41,36.3-33.13S7385.31,7188.45,7385,7208.1Zm-19.22-.32c.11-10.08-6.53-17.51-15.76-17.63-9.75-.13-17,7.16-17.08,17.24-.1,9.77,6.77,17.34,16,17.61C7358.71,7225.29,7365.65,7218.19,7365.76,7207.78Z" transform="translate(-6882.69 -7161.2)"/><path d="M7427,7241.5c-20.64-.08-35.51-14.19-35.6-33.78-.09-19.75,15.21-34.25,36-34.12,20.43.13,35.29,14.6,35.11,34.2C7462.31,7227.62,7447.6,7241.57,7427,7241.5Zm16.29-34.22c-.08-10-7-17.33-16.26-17.13-9.77.21-16.76,7.7-16.57,17.74.18,9.78,7.27,17.14,16.49,17.13C7436.69,7225,7443.35,7217.77,7443.27,7207.27Z" transform="translate(-6882.69 -7161.2)"/><path class="cls-1" d="M7032.21,7175.15h19c0,12.28-.12,24.4,0,36.52.11,8.65,5.37,13.62,13.64,13.33,7.41-.25,12.24-4.82,12.38-12.45.22-12.19.06-24.39.06-37.09h18.57c0,15.26,0,30.35,0,45.43a10.35,10.35,0,0,1-1,3.21c-4.88,13.36-19.93,20-38.23,17-15.71-2.64-24.22-11.86-24.4-26.81C7032.08,7201.42,7032.21,7188.57,7032.21,7175.15Z" transform="translate(-6882.69 -7161.2)"/><path class="cls-1" d="M7123.12,7191.26h-17.34V7175.4h53v15.67h-17v48.56h-18.67Z" transform="translate(-6882.69 -7161.2)"/><path d="M7517.83,7175.35V7191h-16.91v48.72H7482v-48.3h-17.29v-16Z" transform="translate(-6882.69 -7161.2)"/></g></svg>